<svg width="999" height="159" viewBox="0 0 999 159" fill="none" xmlns="http://www.w3.org/2000/svg">
<path d="M780.66 28.9012H762.414V44.0303H758.344V12.6172H762.414V25.0901H780.66V12.6172H784.702V44.0303H780.66V28.9012Z" fill="white"/>
<path d="M825.032 12.6172V44.0303H821.048V38.6312C819.355 40.6908 817.449 42.2402 815.332 43.2796C813.234 44.319 810.934 44.8388 808.432 44.8388C803.987 44.8388 800.185 43.2315 797.029 40.0171C793.892 36.7834 792.323 32.8567 792.323 28.2372C792.323 23.7138 793.911 19.8449 797.087 16.6305C800.262 13.416 804.083 11.8088 808.548 11.8088C811.127 11.8088 813.456 12.3574 815.534 13.4545C817.632 14.5517 819.47 16.1974 821.048 18.3917V12.6172H825.032ZM808.866 15.7066C806.614 15.7066 804.535 16.2648 802.63 17.3812C800.724 18.4783 799.204 20.0278 798.068 22.0296C796.952 24.0314 796.394 26.1487 796.394 28.3815C796.394 30.5951 796.962 32.7124 798.097 34.7334C799.233 36.7545 800.753 38.3328 802.659 39.4685C804.583 40.5849 806.643 41.1431 808.837 41.1431C811.05 41.1431 813.148 40.5849 815.13 39.4685C817.113 38.3521 818.633 36.8411 819.692 34.9355C820.769 33.03 821.308 30.8838 821.308 28.497C821.308 24.8591 820.105 21.8179 817.7 19.3733C815.313 16.9288 812.368 15.7066 808.866 15.7066Z" fill="white"/>
<path d="M830.777 12.6172H835.05L845.847 36.8122L856.327 12.6172H860.629L841.892 55.5215H837.62L843.682 41.6628L830.777 12.6172Z" fill="white"/>
<path d="M879.913 29.854H872.811C869.597 29.854 867.211 29.0263 865.652 27.371C864.112 25.7156 863.342 23.4155 863.342 20.4705V12.6172H867.297V18.3051C867.297 21.9622 867.817 24.2335 868.856 25.1189C869.896 25.9851 871.609 26.4182 873.995 26.4182H879.913V12.6172H883.926V44.0303H879.913V29.854Z" fill="white"/>
<path d="M915.25 28.9012H897.004V44.0303H892.933V12.6172H897.004V25.0901H915.25V12.6172H919.291V44.0303H915.25V28.9012Z" fill="white"/>
<path d="M932.34 25.0612H936.18C939.24 25.0612 941.636 25.3018 943.368 25.783C945.101 26.2642 946.592 27.3325 947.843 28.9878C949.094 30.6239 949.72 32.5103 949.72 34.6468C949.72 37.2261 948.815 39.4396 947.006 41.2875C945.197 43.116 942.454 44.0303 938.778 44.0303H928.327V12.6172H932.34V25.0612ZM932.485 28.7569V40.6234H937.133C942.599 40.6234 945.332 38.6986 945.332 34.8489C945.332 33.7518 945.033 32.6739 944.437 31.6152C943.859 30.5566 943.003 29.8155 941.867 29.392C940.751 28.9686 938.769 28.7569 935.92 28.7569H932.485ZM955.292 12.6172H959.362V44.0303H955.292V12.6172Z" fill="white"/>
<path d="M972.036 12.6172V35.8595L995.103 12.6172H995.42V44.0303H991.378V20.9902L968.485 44.0303H967.994V12.6172H972.036ZM971.487 0H975.298C975.953 1.00091 976.828 1.75159 977.925 2.25204C979.022 2.7525 980.331 3.00272 981.852 3.00272C983.391 3.00272 984.633 2.78137 985.576 2.33866C986.519 1.89595 987.414 1.1164 988.261 0H991.956C991.532 1.73234 990.445 3.18558 988.694 4.35972C986.961 5.51462 984.671 6.09206 981.823 6.09206C978.993 6.09206 976.684 5.52424 974.894 4.3886C973.104 3.2337 971.969 1.77084 971.487 0Z" fill="white"/>
<path d="M329.713 10.7694H739.376V147.509H329.713V10.7694Z" fill="#08D16B"/>
<path d="M437.983 134.848H426.485L391.485 50.4984L355.839 134.848H344.34L390.335 25.7203H392.635L437.983 134.848Z" fill="#111111"/>
<path d="M455.806 25.7203H516.391V36.4773H466.371V70.6028H515.959V81.2855H466.371V124.091H515.959V134.848H455.806V25.7203Z" fill="#111111"/>
<path d="M534.645 25.7203H545.425V66.6709L587.611 25.7203H601.913L551.102 74.683L605.865 134.848H591.851L545.425 83.9562V134.848H534.645V25.7203Z" fill="#111111"/>
<path d="M720.062 45.9731L711.726 52.5756C707.126 46.3934 701.593 41.7197 695.124 38.5545C688.704 35.3397 681.637 33.7324 673.924 33.7324C665.491 33.7324 657.682 35.8343 650.495 40.0382C643.308 44.1926 637.726 49.806 633.75 56.8784C629.821 63.9013 627.857 71.8145 627.857 80.6179C627.857 93.9219 632.265 105.025 641.08 113.927C649.944 122.83 661.107 127.281 674.57 127.281C689.375 127.281 701.76 121.296 711.726 109.328L720.062 115.856C714.792 122.78 708.204 128.146 700.299 131.954C692.441 135.713 683.65 137.593 673.924 137.593C655.43 137.593 640.841 131.237 630.156 118.527C621.197 107.795 616.717 94.8368 616.717 79.6534C616.717 63.6788 622.131 50.2511 632.959 39.3705C643.835 28.4405 657.442 22.9754 673.78 22.9754C683.65 22.9754 692.561 25.0032 700.515 29.0587C708.468 33.0647 714.984 38.7028 720.062 45.9731Z" fill="#111111"/>
<path d="M119.931 11.0995H133.226V72.011H300.998V11.0995H314.294V147.509H300.998V85.3645H133.226V147.509H119.931V11.0995Z" fill="#08D16B"/>
<path d="M103.758 147.509H90.0138V42.9994L2.96453 147.509H0V11.0995H13.2056V117.464L100.794 11.0995H103.758V147.509Z" fill="#08D16B"/>
<path d="M756.547 72.7059H997.73V85.367H756.547V72.7059Z" fill="#08D16B"/>
<path d="M762.386 116.096V139.338L785.452 116.096H785.77V147.509H781.728V124.469L758.835 147.509H758.344V116.096H762.386Z" fill="white"/>
<path d="M817.093 132.38H798.848V147.509H794.777V116.096H798.848V128.569H817.093V116.096H821.135V147.509H817.093V132.38Z" fill="white"/>
<path d="M860.657 122.621L857.453 124.613C854.681 120.937 850.899 119.098 846.107 119.098C842.277 119.098 839.092 120.33 836.551 122.794C834.03 125.258 832.769 128.251 832.769 131.773C832.769 134.064 833.347 136.22 834.502 138.241C835.676 140.262 837.273 141.831 839.294 142.947C841.334 144.063 843.615 144.622 846.136 144.622C850.755 144.622 854.527 142.783 857.453 139.107L860.657 141.215C859.156 143.467 857.135 145.218 854.595 146.469C852.074 147.701 849.196 148.317 845.963 148.317C840.997 148.317 836.879 146.739 833.607 143.582C830.335 140.425 828.699 136.585 828.699 132.062C828.699 129.021 829.459 126.201 830.98 123.603C832.519 120.985 834.627 118.944 837.302 117.482C839.977 116.019 842.97 115.287 846.28 115.287C848.359 115.287 850.361 115.605 852.285 116.24C854.229 116.875 855.875 117.703 857.222 118.723C858.569 119.743 859.714 121.042 860.657 122.621Z" fill="white"/>
<path d="M864.93 116.096H885.601V119.589H877.286V147.509H873.216V119.589H864.93V116.096Z" fill="white"/>
<path d="M895.128 116.096V139.338L918.194 116.096H918.512V147.509H914.47V124.469L891.577 147.509H891.086V116.096H895.128Z" fill="white"/>
<path d="M923.997 116.096H944.668V119.589H936.353V147.509H932.283V119.589H923.997V116.096Z" fill="white"/>
<path d="M946.775 116.096H951.048L961.845 140.291L972.325 116.096H976.626L957.89 159H953.617L959.68 145.141L946.775 116.096Z" fill="white"/>
<path d="M978.329 116.096H999V119.589H990.686V147.509H986.615V119.589H978.329V116.096Z" fill="white"/>
</svg>
