<svg width="334" height="148" viewBox="0 0 334 148" fill="none" xmlns="http://www.w3.org/2000/svg">
<path d="M173.243 3.61389L284.683 144.791L60.8984 145.044L173.243 3.61389Z" stroke="#070707" stroke-width="3" stroke-miterlimit="10"/>
<path d="M70.2329 133.403L3.62793 133.329L72.3439 48.8108L105.168 89.6574" stroke="#070707" stroke-width="3" stroke-miterlimit="10"/>
<path d="M230.193 76.3751L257.5 42.4301L330.504 133.366H275.787" stroke="#070707" stroke-width="3" stroke-miterlimit="10"/>
<path d="M93.5388 75.1862H50.8994" stroke="#070707" stroke-width="3" stroke-miterlimit="10"/>
<path d="M100.263 83.5554H44.0957" stroke="#070707" stroke-width="3" stroke-miterlimit="10"/>
<path d="M102.897 92.1719H37.0889" stroke="#070707" stroke-width="3" stroke-miterlimit="10"/>
<path d="M96.2346 100.562H30.2705" stroke="#070707" stroke-width="3" stroke-miterlimit="10"/>
<path d="M89.8873 108.553H23.7725" stroke="#070707" stroke-width="3" stroke-miterlimit="10"/>
<path d="M83.4081 116.711H17.1377" stroke="#070707" stroke-width="3" stroke-miterlimit="10"/>
<path d="M76.9858 124.791H10.5693" stroke="#070707" stroke-width="3" stroke-miterlimit="10"/>
<path d="M86.5938 66.5435H57.9209" stroke="#070707" stroke-width="3" stroke-miterlimit="10"/>
<path d="M72.377 130.667V48.8108" stroke="#070707" stroke-width="3" stroke-miterlimit="10"/>
<path d="M79.9775 58.311H64.6162" stroke="#070707" stroke-width="3" stroke-miterlimit="10"/>
<path d="M208.918 48.8108H137.347" stroke="#070707" stroke-width="3" stroke-miterlimit="10"/>
<path d="M173.201 144.391V4.61853" stroke="#070707" stroke-width="3" stroke-miterlimit="10"/>
<path d="M201.417 39.3H144.995" stroke="#070707" stroke-width="3" stroke-miterlimit="10"/>
<path d="M193.873 29.7368H152.449" stroke="#070707" stroke-width="3" stroke-miterlimit="10"/>
<path d="M186.701 20.4312H159.706" stroke="#070707" stroke-width="3" stroke-miterlimit="10"/>
<path d="M180.108 12.1935H166.34" stroke="#070707" stroke-width="3" stroke-miterlimit="10"/>
<path d="M216.415 58.3058H129.798" stroke="#070707" stroke-width="3" stroke-miterlimit="10"/>
<path d="M224.275 67.7007H122.334" stroke="#070707" stroke-width="3" stroke-miterlimit="10"/>
<path d="M231.456 77.0273H114.932" stroke="#070707" stroke-width="3" stroke-miterlimit="10"/>
<path d="M238.863 86.4644H107.435" stroke="#070707" stroke-width="3" stroke-miterlimit="10"/>
<path d="M245.946 95.7174H100.084" stroke="#070707" stroke-width="3" stroke-miterlimit="10"/>
<path d="M254.003 105.649H92.1914" stroke="#070707" stroke-width="3" stroke-miterlimit="10"/>
<path d="M261.83 116.064H83.9219" stroke="#070707" stroke-width="3" stroke-miterlimit="10"/>
<path d="M270 125.922H76.0898" stroke="#070707" stroke-width="3" stroke-miterlimit="10"/>
<path d="M277.502 135.691H68.3291" stroke="#070707" stroke-width="3" stroke-miterlimit="10"/>
<path d="M275.952 65.4966H238.793" stroke="#070707" stroke-width="3" stroke-miterlimit="10"/>
<path d="M283.265 74.918H231.216" stroke="#070707" stroke-width="3" stroke-miterlimit="10"/>
<path d="M257.844 42.4301V110.788" stroke="#070707" stroke-width="3" stroke-miterlimit="10"/>
<path d="M291.582 84.8862H237.398" stroke="#070707" stroke-width="3" stroke-miterlimit="10"/>
<path d="M299.437 94.6653H245.206" stroke="#070707" stroke-width="3" stroke-miterlimit="10"/>
<path d="M306.666 103.513H252.189" stroke="#070707" stroke-width="3" stroke-miterlimit="10"/>
<path d="M314.958 114.002H260.416" stroke="#070707" stroke-width="3" stroke-miterlimit="10"/>
<path d="M322.884 123.818H268.111" stroke="#070707" stroke-width="3" stroke-miterlimit="10"/>
<path d="M268.827 56.2015H245.847" stroke="#070707" stroke-width="3" stroke-miterlimit="10"/>
</svg>
